<svg viewBox="0 0 800 600" xmlns="http://www.w3.org/2000/svg">
  <defs>
    <linearGradient id="float-bg" x1="0%" y1="0%" x2="100%" y2="100%">
      <stop offset="0%" style="stop-color:#1e1e2e"/>
      <stop offset="100%" style="stop-color:#313244"/>
    </linearGradient>
  </defs>
  
  <rect width="800" height="600" fill="url(#float-bg)"/>
  
  <!-- Screen content behind (simulated desktop) -->
  <g transform="translate(100, 80)">
    <rect x="0" y="0" width="600" height="400" rx="8" fill="#1e1e2e" stroke="#45475a" stroke-width="2"/>
    
    <!-- Fake code editor -->
    <rect x="0" y="0" width="600" height="30" fill="#181825" rx="8"/>
    <rect x="0" y="22" width="600" height="8" fill="#181825"/>
    <circle cx="20" cy="15" r="5" fill="#f38ba8"/>
    <circle cx="38" cy="15" r="5" fill="#f9e2af"/>
    <circle cx="56" cy="15" r="5" fill="#a6e3a1"/>
    <text x="300" y="20" font-family="system-ui" font-size="11" fill="#6c7086" text-anchor="middle">index.tsx — VS Code</text>
    
    <g transform="translate(20, 50)">
      <text y="0" font-family="ui-monospace" font-size="12" fill="#6c7086">1</text>
      <text x="30" y="0" font-family="ui-monospace" font-size="12" fill="#cba6f7">import</text>
      <text x="75" y="0" font-family="ui-monospace" font-size="12" fill="#cdd6f4"> { useState } </text>
      <text x="180" y="0" font-family="ui-monospace" font-size="12" fill="#cba6f7">from</text>
      <text x="220" y="0" font-family="ui-monospace" font-size="12" fill="#a6e3a1"> 'react'</text>
      
      <text y="22" font-family="ui-monospace" font-size="12" fill="#6c7086">2</text>
      <text y="44" font-family="ui-monospace" font-size="12" fill="#6c7086">3</text>
      <text x="30" y="44" font-family="ui-monospace" font-size="12" fill="#cba6f7">function</text>
      <text x="95" y="44" font-family="ui-monospace" font-size="12" fill="#89b4fa"> App</text>
      <text x="125" y="44" font-family="ui-monospace" font-size="12" fill="#cdd6f4">() {</text>
      
      <text y="66" font-family="ui-monospace" font-size="12" fill="#6c7086">4</text>
      <text x="30" y="66" font-family="ui-monospace" font-size="12" fill="#6c7086">  // TODO: implement</text>
    </g>
  </g>
  
  <!-- Floating overlay -->
  <g transform="translate(200, 180)">
    <!-- Transparent overlay window -->
    <rect x="0" y="0" width="400" height="280" rx="12" fill="#1e1e2e" fill-opacity="0.85" stroke="#f38ba8" stroke-width="2"/>
    
    <!-- Toolbar -->
    <g transform="translate(15, 15)">
      <rect x="0" y="0" width="36" height="36" rx="6" fill="#313244"/>
      <text x="18" y="25" font-family="system-ui" font-size="16" fill="#f38ba8" text-anchor="middle">✏️</text>
      
      <rect x="44" y="0" width="36" height="36" rx="6" fill="#313244"/>
      <text x="62" y="25" font-family="system-ui" font-size="16" fill="#f9e2af" text-anchor="middle">T</text>
      
      <rect x="88" y="0" width="36" height="36" rx="6" fill="#45475a"/>
      <text x="106" y="25" font-family="system-ui" font-size="16" fill="#a6e3a1" text-anchor="middle">□</text>
      
      <rect x="132" y="0" width="36" height="36" rx="6" fill="#313244"/>
      <text x="150" y="25" font-family="system-ui" font-size="16" fill="#89dceb" text-anchor="middle">⌫</text>
      
      <!-- Color picker -->
      <circle cx="220" cy="18" r="12" fill="#f38ba8"/>
      <circle cx="250" cy="18" r="12" fill="#89b4fa"/>
      <circle cx="280" cy="18" r="12" fill="#a6e3a1"/>
      <circle cx="310" cy="18" r="12" fill="#f9e2af"/>
      
      <!-- Opacity slider -->
      <rect x="340" y="12" width="40" height="12" rx="6" fill="#45475a"/>
      <circle cx="360" cy="18" r="8" fill="#cdd6f4"/>
    </g>
    
    <!-- Drawing area with annotations -->
    <g transform="translate(20, 65)">
      <!-- Hand-drawn circle -->
      <ellipse cx="100" cy="80" rx="60" ry="40" fill="none" stroke="#f38ba8" stroke-width="3" stroke-dasharray="5,3"/>
      
      <!-- Arrow -->
      <line x1="170" y1="80" x2="260" y2="60" stroke="#89b4fa" stroke-width="3"/>
      <polygon points="260,60 250,55 252,65" fill="#89b4fa"/>
      
      <!-- Text annotation -->
      <text x="270" y="65" font-family="system-ui" font-size="14" fill="#f9e2af">Check this!</text>
      
      <!-- Underline -->
      <line x1="80" y1="150" x2="200" y2="150" stroke="#a6e3a1" stroke-width="3"/>
    </g>
    
    <!-- Screenshot button -->
    <g transform="translate(290, 230)">
      <rect x="0" y="0" width="90" height="32" rx="6" fill="#89b4fa"/>
      <text x="45" y="21" font-family="system-ui" font-size="12" font-weight="600" fill="#1e1e2e" text-anchor="middle">📷 Capture</text>
    </g>
  </g>
  
  <!-- Title -->
  <text x="400" y="530" font-family="system-ui" font-size="28" font-weight="700" fill="#cdd6f4" text-anchor="middle">floatnote</text>
  <text x="400" y="560" font-family="system-ui" font-size="14" fill="#6c7086" text-anchor="middle">Transparent drawing overlay for macOS</text>
</svg>