<svg viewBox="0 0 800 600" xmlns="http://www.w3.org/2000/svg">
  <defs>
    <linearGradient id="innov-bg" x1="0%" y1="0%" x2="100%" y2="100%">
      <stop offset="0%" style="stop-color:#0f172a"/>
      <stop offset="100%" style="stop-color:#1e1b4b"/>
    </linearGradient>
    <linearGradient id="innov-accent" x1="0%" y1="0%" x2="100%" y2="0%">
      <stop offset="0%" style="stop-color:#8b5cf6"/>
      <stop offset="100%" style="stop-color:#a855f7"/>
    </linearGradient>
  </defs>
  
  <rect width="800" height="600" fill="url(#innov-bg)"/>
  
  <!-- Pipeline visualization -->
  <g transform="translate(50, 200)">
    <!-- Stage boxes -->
    <g>
      <rect x="0" y="0" width="140" height="180" rx="12" fill="#1e293b" stroke="#334155" stroke-width="2"/>
      <text x="70" y="30" font-family="system-ui" font-size="14" font-weight="600" fill="#94a3b8" text-anchor="middle">SUBMITTED</text>
      <rect x="15" y="50" width="110" height="35" rx="6" fill="#334155"/>
      <text x="70" y="73" font-family="system-ui" font-size="11" fill="#fff" text-anchor="middle">AI Chatbot</text>
      <rect x="15" y="95" width="110" height="35" rx="6" fill="#334155"/>
      <text x="70" y="118" font-family="system-ui" font-size="11" fill="#fff" text-anchor="middle">Smart Cart</text>
      <rect x="15" y="140" width="110" height="35" rx="6" fill="#334155"/>
      <text x="70" y="163" font-family="system-ui" font-size="11" fill="#fff" text-anchor="middle">Voice Search</text>
    </g>
    
    <!-- Arrow -->
    <path d="M150 90 L170 90" stroke="#8b5cf6" stroke-width="3" fill="none"/>
    <polygon points="175,90 168,85 168,95" fill="#8b5cf6"/>
    
    <g transform="translate(180, 0)">
      <rect x="0" y="0" width="140" height="180" rx="12" fill="#1e293b" stroke="#8b5cf6" stroke-width="2"/>
      <text x="70" y="30" font-family="system-ui" font-size="14" font-weight="600" fill="#8b5cf6" text-anchor="middle">IN REVIEW</text>
      <rect x="15" y="50" width="110" height="35" rx="6" fill="url(#innov-accent)" opacity="0.3"/>
      <text x="70" y="73" font-family="system-ui" font-size="11" fill="#fff" text-anchor="middle">AR Navigation</text>
      <rect x="15" y="95" width="110" height="35" rx="6" fill="url(#innov-accent)" opacity="0.3"/>
      <text x="70" y="118" font-family="system-ui" font-size="11" fill="#fff" text-anchor="middle">Self Checkout 2.0</text>
    </g>
    
    <path d="M330 90 L350 90" stroke="#8b5cf6" stroke-width="3" fill="none"/>
    <polygon points="355,90 348,85 348,95" fill="#8b5cf6"/>
    
    <g transform="translate(360, 0)">
      <rect x="0" y="0" width="140" height="180" rx="12" fill="#1e293b" stroke="#f59e0b" stroke-width="2"/>
      <text x="70" y="30" font-family="system-ui" font-size="14" font-weight="600" fill="#f59e0b" text-anchor="middle">PILOT</text>
      <rect x="15" y="50" width="110" height="35" rx="6" fill="#f59e0b" opacity="0.3"/>
      <text x="70" y="73" font-family="system-ui" font-size="11" fill="#fff" text-anchor="middle">Smart Shelf</text>
    </g>
    
    <path d="M510 90 L530 90" stroke="#f59e0b" stroke-width="3" fill="none"/>
    <polygon points="535,90 528,85 528,95" fill="#f59e0b"/>
    
    <g transform="translate(540, 0)">
      <rect x="0" y="0" width="140" height="180" rx="12" fill="#1e293b" stroke="#22c55e" stroke-width="2"/>
      <text x="70" y="30" font-family="system-ui" font-size="14" font-weight="600" fill="#22c55e" text-anchor="middle">PRODUCTION</text>
      <rect x="15" y="50" width="110" height="35" rx="6" fill="#22c55e" opacity="0.3"/>
      <text x="70" y="73" font-family="system-ui" font-size="11" fill="#fff" text-anchor="middle">Kiosk System</text>
      <rect x="15" y="95" width="110" height="35" rx="6" fill="#22c55e" opacity="0.3"/>
      <text x="70" y="118" font-family="system-ui" font-size="11" fill="#fff" text-anchor="middle">Mobile App</text>
    </g>
  </g>
  
  <!-- Header -->
  <text x="400" y="80" font-family="system-ui" font-size="28" font-weight="700" fill="#fff" text-anchor="middle">Innovation Pipeline</text>
  <text x="400" y="110" font-family="system-ui" font-size="14" fill="#94a3b8" text-anchor="middle">Track ideas from submission to production</text>
  
  <!-- Stats -->
  <g transform="translate(150, 450)">
    <rect x="0" y="0" width="120" height="70" rx="8" fill="#1e293b"/>
    <text x="60" y="35" font-family="system-ui" font-size="24" font-weight="700" fill="#8b5cf6" text-anchor="middle">47</text>
    <text x="60" y="55" font-family="system-ui" font-size="12" fill="#94a3b8" text-anchor="middle">Total Ideas</text>
    
    <rect x="140" y="0" width="120" height="70" rx="8" fill="#1e293b"/>
    <text x="200" y="35" font-family="system-ui" font-size="24" font-weight="700" fill="#f59e0b" text-anchor="middle">8</text>
    <text x="200" y="55" font-family="system-ui" font-size="12" fill="#94a3b8" text-anchor="middle">In Pilot</text>
    
    <rect x="280" y="0" width="120" height="70" rx="8" fill="#1e293b"/>
    <text x="340" y="35" font-family="system-ui" font-size="24" font-weight="700" fill="#22c55e" text-anchor="middle">12</text>
    <text x="340" y="55" font-family="system-ui" font-size="12" fill="#94a3b8" text-anchor="middle">Launched</text>
  </g>
</svg>