<svg viewBox="0 0 800 600" xmlns="http://www.w3.org/2000/svg">
  <defs>
    <linearGradient id="zeebra-bg" x1="0%" y1="0%" x2="100%" y2="100%">
      <stop offset="0%" style="stop-color:#0f172a"/>
      <stop offset="100%" style="stop-color:#1e293b"/>
    </linearGradient>
  </defs>
  
  <rect width="800" height="600" fill="url(#zeebra-bg)"/>
  
  <!-- Layer visualization -->
  <g transform="translate(200, 100)">
    <!-- Base layer -->
    <rect x="0" y="300" width="400" height="80" rx="8" fill="#1e293b" stroke="#334155" stroke-width="2"/>
    <text x="20" y="345" font-family="ui-monospace" font-size="14" fill="#64748b">z-index: 1</text>
    <text x="200" y="345" font-family="system-ui" font-size="14" fill="#94a3b8" text-anchor="middle">Base Content</text>
    
    <!-- Dropdown layer -->
    <rect x="50" y="220" width="180" height="100" rx="8" fill="#334155" stroke="#3b82f6" stroke-width="2"/>
    <text x="70" y="255" font-family="ui-monospace" font-size="12" fill="#3b82f6">z-index: 10</text>
    <text x="140" y="280" font-family="system-ui" font-size="13" fill="#fff" text-anchor="middle">Dropdown</text>
    <rect x="70" y="290" width="140" height="20" rx="4" fill="#1e293b"/>
    
    <!-- Modal layer -->
    <rect x="100" y="100" width="250" height="150" rx="12" fill="#1e293b" stroke="#8b5cf6" stroke-width="2"/>
    <rect x="100" y="100" width="250" height="40" rx="12" fill="#8b5cf6"/>
    <rect x="100" y="128" width="250" height="122" rx="0" fill="#1e293b"/>
    <text x="120" y="126" font-family="system-ui" font-size="14" font-weight="600" fill="#fff">Modal</text>
    <text x="330" y="126" font-family="system-ui" font-size="16" fill="#fff">×</text>
    <text x="120" y="165" font-family="ui-monospace" font-size="12" fill="#8b5cf6">z-index: 100</text>
    <text x="120" y="200" font-family="system-ui" font-size="13" fill="#94a3b8">Are you sure?</text>
    <rect x="120" y="215" width="80" height="28" rx="4" fill="#8b5cf6"/>
    <text x="160" y="234" font-family="system-ui" font-size="12" fill="#fff" text-anchor="middle">Confirm</text>
    
    <!-- Tooltip layer -->
    <rect x="280" y="50" width="130" height="40" rx="6" fill="#0f172a" stroke="#22c55e" stroke-width="2"/>
    <text x="295" y="75" font-family="ui-monospace" font-size="11" fill="#22c55e">z-index: 1000</text>
    <polygon points="320,90 340,90 330,105" fill="#0f172a" stroke="#22c55e" stroke-width="2"/>
    <text x="345" y="38" font-family="system-ui" font-size="11" fill="#94a3b8">Tooltip</text>
  </g>
  
  <!-- Z-Stack indicator -->
  <g transform="translate(620, 150)">
    <text x="0" y="0" font-family="system-ui" font-size="14" font-weight="600" fill="#fff">Z-Stack</text>
    
    <rect x="0" y="20" width="100" height="24" rx="4" fill="#22c55e" opacity="0.3"/>
    <text x="10" y="37" font-family="ui-monospace" font-size="11" fill="#22c55e">1000</text>
    <text x="50" y="37" font-family="system-ui" font-size="10" fill="#94a3b8">tooltip</text>
    
    <rect x="0" y="50" width="100" height="24" rx="4" fill="#8b5cf6" opacity="0.3"/>
    <text x="10" y="67" font-family="ui-monospace" font-size="11" fill="#8b5cf6">100</text>
    <text x="50" y="67" font-family="system-ui" font-size="10" fill="#94a3b8">modal</text>
    
    <rect x="0" y="80" width="100" height="24" rx="4" fill="#3b82f6" opacity="0.3"/>
    <text x="10" y="97" font-family="ui-monospace" font-size="11" fill="#3b82f6">10</text>
    <text x="50" y="97" font-family="system-ui" font-size="10" fill="#94a3b8">dropdown</text>
    
    <rect x="0" y="110" width="100" height="24" rx="4" fill="#64748b" opacity="0.3"/>
    <text x="10" y="127" font-family="ui-monospace" font-size="11" fill="#64748b">1</text>
    <text x="50" y="127" font-family="system-ui" font-size="10" fill="#94a3b8">base</text>
    
    <text x="0" y="170" font-family="system-ui" font-size="11" fill="#22c55e">♻️ Auto-recycling</text>
  </g>
  
  <!-- Code snippet -->
  <g transform="translate(100, 450)">
    <rect x="0" y="0" width="600" height="100" rx="8" fill="#0f172a"/>
    <text x="20" y="30" font-family="ui-monospace" font-size="12" fill="#64748b">// No more z-index: 99999</text>
    <text x="20" y="55" font-family="ui-monospace" font-size="12" fill="#c084fc">const</text>
    <text x="60" y="55" font-family="ui-monospace" font-size="12" fill="#fff"> zIndex = </text>
    <text x="145" y="55" font-family="ui-monospace" font-size="12" fill="#22d3ee">useZIndex</text>
    <text x="215" y="55" font-family="ui-monospace" font-size="12" fill="#fff">(</text>
    <text x="222" y="55" font-family="ui-monospace" font-size="12" fill="#a5f3fc">'modal'</text>
    <text x="280" y="55" font-family="ui-monospace" font-size="12" fill="#fff">);</text>
    <text x="20" y="80" font-family="ui-monospace" font-size="12" fill="#64748b">// Returns managed z-index, auto-recycles on unmount</text>
  </g>
  
  <!-- Title -->
  <text x="400" y="45" font-family="system-ui" font-size="32" font-weight="700" fill="#fff" text-anchor="middle">zeebra</text>
  <text x="400" y="70" font-family="system-ui" font-size="14" fill="#94a3b8" text-anchor="middle">Z-index management with virtual stack recycling</text>
</svg>