<svg xmlns="http://www.w3.org/2000/svg" viewBox="0 0 390 844">
  <defs>
    <linearGradient id="appBg" x1="0%" y1="0%" x2="100%" y2="100%">
      <stop offset="0%" style="stop-color:#0f172a"/>
      <stop offset="100%" style="stop-color:#1e293b"/>
    </linearGradient>
    <linearGradient id="cardGrad" x1="0%" y1="0%" x2="0%" y2="100%">
      <stop offset="0%" style="stop-color:#1e293b"/>
      <stop offset="100%" style="stop-color:#0f172a"/>
    </linearGradient>
    <linearGradient id="greenBtn" x1="0%" y1="0%" x2="100%" y2="100%">
      <stop offset="0%" style="stop-color:#22c55e"/>
      <stop offset="100%" style="stop-color:#16a34a"/>
    </linearGradient>
  </defs>
  
  <!-- Phone frame -->
  <rect width="390" height="844" rx="50" fill="#0a0a0a"/>
  <rect x="10" y="10" width="370" height="824" rx="42" fill="url(#appBg)"/>
  
  <!-- Dynamic Island -->
  <rect x="130" y="20" width="130" height="35" rx="17" fill="#000"/>
  
  <!-- Status bar -->
  <text x="35" y="45" font-family="system-ui" font-size="14" fill="#fff" font-weight="600">9:41</text>
  <g transform="translate(320, 35)">
    <rect x="0" y="0" width="25" height="12" rx="3" fill="none" stroke="#fff" stroke-width="1"/>
    <rect x="2" y="2" width="18" height="8" rx="1" fill="#22c55e"/>
    <rect x="25" y="3" width="2" height="6" rx="1" fill="#fff"/>
  </g>
  
  <!-- Header -->
  <text x="30" y="100" font-family="system-ui" font-size="28" fill="#fff" font-weight="bold">Rooms</text>
  <text x="30" y="125" font-family="system-ui" font-size="14" fill="#64748b">Tuesday, January 25</text>
  
  <!-- Search bar -->
  <rect x="30" y="145" width="330" height="44" rx="12" fill="#1e293b"/>
  <text x="60" y="173" font-family="system-ui" font-size="14" fill="#64748b">🔍 Search rooms...</text>
  
  <!-- Time slots header -->
  <g transform="translate(30, 210)">
    <text x="0" y="0" font-family="system-ui" font-size="12" fill="#64748b">NOW</text>
    <text x="60" y="0" font-family="system-ui" font-size="12" fill="#64748b">11:00</text>
    <text x="120" y="0" font-family="system-ui" font-size="12" fill="#64748b">12:00</text>
    <text x="180" y="0" font-family="system-ui" font-size="12" fill="#64748b">1:00</text>
    <text x="240" y="0" font-family="system-ui" font-size="12" fill="#64748b">2:00</text>
    <text x="290" y="0" font-family="system-ui" font-size="12" fill="#64748b">3:00</text>
  </g>
  
  <!-- Room cards -->
  <!-- Room 1 - Available -->
  <rect x="30" y="230" width="330" height="100" rx="16" fill="url(#cardGrad)" stroke="#334155" stroke-width="1"/>
  <circle cx="55" cy="260" r="12" fill="#22c55e" opacity="0.2"/>
  <circle cx="55" cy="260" r="6" fill="#22c55e"/>
  <text x="80" y="265" font-family="system-ui" font-size="16" fill="#fff" font-weight="600">Conference Room A</text>
  <text x="80" y="285" font-family="system-ui" font-size="12" fill="#64748b">Floor 2 • 8 people • TV, Whiteboard</text>
  <!-- Availability bar -->
  <rect x="80" y="300" width="260" height="16" rx="4" fill="#1e293b"/>
  <rect x="80" y="300" width="60" height="16" rx="4" fill="#22c55e"/>
  <rect x="200" y="300" width="80" height="16" rx="4" fill="#3b82f6" opacity="0.5"/>
  
  <!-- Room 2 - Busy -->
  <rect x="30" y="345" width="330" height="100" rx="16" fill="url(#cardGrad)" stroke="#334155" stroke-width="1"/>
  <circle cx="55" cy="375" r="12" fill="#ef4444" opacity="0.2"/>
  <circle cx="55" cy="375" r="6" fill="#ef4444"/>
  <text x="80" y="380" font-family="system-ui" font-size="16" fill="#fff" font-weight="600">Meeting Room B</text>
  <text x="80" y="400" font-family="system-ui" font-size="12" fill="#64748b">Floor 2 • 4 people • TV</text>
  <rect x="80" y="415" width="260" height="16" rx="4" fill="#1e293b"/>
  <rect x="80" y="415" width="120" height="16" rx="4" fill="#ef4444"/>
  <text x="85" y="427" font-family="system-ui" font-size="9" fill="#fff">Team Standup</text>
  <rect x="220" y="415" width="60" height="16" rx="4" fill="#22c55e"/>
  
  <!-- Room 3 - Available -->
  <rect x="30" y="460" width="330" height="100" rx="16" fill="url(#cardGrad)" stroke="#334155" stroke-width="1"/>
  <circle cx="55" cy="490" r="12" fill="#22c55e" opacity="0.2"/>
  <circle cx="55" cy="490" r="6" fill="#22c55e"/>
  <text x="80" y="495" font-family="system-ui" font-size="16" fill="#fff" font-weight="600">Huddle Space</text>
  <text x="80" y="515" font-family="system-ui" font-size="12" fill="#64748b">Floor 1 • 3 people • Monitor</text>
  <rect x="80" y="530" width="260" height="16" rx="4" fill="#22c55e"/>
  <text x="85" y="542" font-family="system-ui" font-size="9" fill="#fff">Available all day</text>
  
  <!-- Quick book button -->
  <rect x="250" y="250" width="95" height="32" rx="8" fill="url(#greenBtn)"/>
  <text x="297" y="272" font-family="system-ui" font-size="13" fill="#fff" text-anchor="middle" font-weight="600">Book Now</text>
  
  <!-- Bottom nav -->
  <rect x="30" y="590" width="330" height="70" rx="20" fill="#0f172a" stroke="#1e293b"/>
  <g transform="translate(70, 610)">
    <rect x="0" y="0" width="40" height="4" rx="2" fill="#22c55e"/>
    <text x="20" y="35" font-family="system-ui" font-size="11" fill="#22c55e" text-anchor="middle">Rooms</text>
  </g>
  <g transform="translate(155, 615)">
    <text x="20" y="0" font-family="system-ui" font-size="20" text-anchor="middle">📅</text>
    <text x="20" y="30" font-family="system-ui" font-size="11" fill="#64748b" text-anchor="middle">Calendar</text>
  </g>
  <g transform="translate(240, 615)">
    <text x="20" y="0" font-family="system-ui" font-size="20" text-anchor="middle">👤</text>
    <text x="20" y="30" font-family="system-ui" font-size="11" fill="#64748b" text-anchor="middle">Profile</text>
  </g>
  
  <!-- App info -->
  <text x="195" y="710" font-family="system-ui" font-size="36" fill="#fff" text-anchor="middle" font-weight="bold">Qortr</text>
  <text x="195" y="740" font-family="system-ui" font-size="15" fill="#64748b" text-anchor="middle">Room booking that just works</text>
  
  <!-- Stats -->
  <g transform="translate(50, 770)">
    <text x="0" y="0" font-family="system-ui" font-size="22" fill="#fff" font-weight="bold">1,000+</text>
    <text x="0" y="20" font-family="system-ui" font-size="11" fill="#64748b">daily bookings</text>
  </g>
  <g transform="translate(170, 770)">
    <text x="0" y="0" font-family="system-ui" font-size="22" fill="#fff" font-weight="bold">2,500+</text>
    <text x="0" y="20" font-family="system-ui" font-size="11" fill="#64748b">active teams</text>
  </g>
  <g transform="translate(280, 770)">
    <text x="0" y="0" font-family="system-ui" font-size="22" fill="#fff" font-weight="bold">Real-time</text>
    <text x="0" y="20" font-family="system-ui" font-size="11" fill="#64748b">availability</text>
  </g>
</svg>