<svg width="800" height="400" viewBox="0 0 800 400" fill="none" xmlns="http://www.w3.org/2000/svg">
  <defs>
    <linearGradient id="bg" x1="0%" y1="0%" x2="100%" y2="100%">
      <stop offset="0%" style="stop-color:#0a0a0a"/>
      <stop offset="100%" style="stop-color:#1a1a2e"/>
    </linearGradient>
  </defs>
  <rect width="800" height="400" fill="url(#bg)"/>
  
  <!-- AI Brain/chip -->
  <rect x="300" y="100" width="200" height="200" rx="20" fill="none" stroke="#60a5fa" stroke-width="2"/>
  <circle cx="400" cy="200" r="50" fill="#60a5fa" opacity="0.2"/>
  
  <!-- Neural network nodes -->
  <circle cx="350" cy="150" r="8" fill="#60a5fa" opacity="0.7"/>
  <circle cx="450" cy="150" r="8" fill="#60a5fa" opacity="0.7"/>
  <circle cx="350" cy="250" r="8" fill="#60a5fa" opacity="0.7"/>
  <circle cx="450" cy="250" r="8" fill="#60a5fa" opacity="0.7"/>
  <circle cx="400" cy="200" r="12" fill="#fbbf24" opacity="0.8"/>
  
  <!-- Connections -->
  <line x1="350" y1="150" x2="400" y2="200" stroke="#60a5fa" stroke-width="1" opacity="0.5"/>
  <line x1="450" y1="150" x2="400" y2="200" stroke="#60a5fa" stroke-width="1" opacity="0.5"/>
  <line x1="350" y1="250" x2="400" y2="200" stroke="#60a5fa" stroke-width="1" opacity="0.5"/>
  <line x1="450" y1="250" x2="400" y2="200" stroke="#60a5fa" stroke-width="1" opacity="0.5"/>
  
  <!-- Code output -->
  <rect x="550" y="130" width="150" height="140" rx="8" fill="none" stroke="#10b981" stroke-width="1" opacity="0.6"/>
  <rect x="565" y="150" width="80" height="8" rx="2" fill="#10b981" opacity="0.4"/>
  <rect x="565" y="165" width="100" height="8" rx="2" fill="#10b981" opacity="0.3"/>
  <rect x="565" y="180" width="60" height="8" rx="2" fill="#10b981" opacity="0.4"/>
  <rect x="565" y="195" width="90" height="8" rx="2" fill="#10b981" opacity="0.3"/>
  
  <!-- Labels -->
  <text x="150" y="200" fill="#666" font-family="monospace" font-size="12">prompt →</text>
  <text x="400" y="340" fill="#666" font-family="monospace" font-size="14" text-anchor="middle">AI Coding Assistants</text>
</svg>
