<svg viewBox="0 0 1200 630" xmlns="http://www.w3.org/2000/svg">
  <defs>
    <linearGradient id="bg" x1="0%" y1="0%" x2="100%" y2="100%">
      <stop offset="0%" style="stop-color:#0a0a0a"/>
      <stop offset="100%" style="stop-color:#1a1a1a"/>
    </linearGradient>
    <linearGradient id="accent" x1="0%" y1="0%" x2="100%" y2="0%">
      <stop offset="0%" style="stop-color:#ec4899"/>
      <stop offset="100%" style="stop-color:#8b5cf6"/>
    </linearGradient>
  </defs>
  <rect width="1200" height="630" fill="url(#bg)"/>
  <circle cx="200" cy="500" r="300" fill="#ec4899" opacity="0.03"/>
  <circle cx="1050" cy="120" r="250" fill="#8b5cf6" opacity="0.03"/>

  <!-- Broken image frame -->
  <g transform="translate(850, 130)">
    <rect x="0" y="0" width="200" height="160" rx="6" fill="#1f1f1f" stroke="#ec4899" stroke-width="2"/>
    <polygon points="30,120 70,70 100,95 140,50 170,120" fill="none" stroke="#ec4899" stroke-width="1.5" opacity="0.4"/>
    <circle cx="55" cy="50" r="15" fill="none" stroke="#ec4899" stroke-width="1.5" opacity="0.4"/>
    <line x1="90" y1="0" x2="110" y2="80" stroke="#ef4444" stroke-width="2" opacity="0.6"/>
    <line x1="110" y1="80" x2="95" y2="160" stroke="#ef4444" stroke-width="2" opacity="0.6"/>
    <rect x="120" y="35" width="50" height="8" fill="#8b5cf6" opacity="0.3"/>
    <rect x="20" y="95" width="40" height="6" fill="#ec4899" opacity="0.3"/>
  </g>

  <!-- Tool badges -->
  <g transform="translate(830, 320)">
    <rect x="0" y="0" width="95" height="28" rx="5" fill="#ec4899" opacity="0.15" stroke="#ec4899" stroke-width="1"/>
    <text x="47" y="19" text-anchor="middle" font-family="monospace" font-size="10" fill="#ec4899">DALL-E</text>
    <rect x="110" y="0" width="95" height="28" rx="5" fill="#8b5cf6" opacity="0.15" stroke="#8b5cf6" stroke-width="1"/>
    <text x="157" y="19" text-anchor="middle" font-family="monospace" font-size="10" fill="#8b5cf6">Midjourney</text>
    <rect x="220" y="0" width="95" height="28" rx="5" fill="#f97316" opacity="0.15" stroke="#f97316" stroke-width="1"/>
    <text x="267" y="19" text-anchor="middle" font-family="monospace" font-size="9" fill="#f97316">Stable Diff</text>
  </g>

  <rect x="80" y="280" width="120" height="4" rx="2" fill="url(#accent)" opacity="0.8"/>
  <text x="80" y="340" font-family="system-ui, sans-serif" font-size="42" font-weight="700" fill="#ffffff">AI Image Gen Is Broken</text>
  <text x="80" y="400" font-family="system-ui, sans-serif" font-size="26" fill="#a1a1aa">And How I Use It Anyway</text>
  <text x="80" y="450" font-family="system-ui, sans-serif" font-size="20" fill="#71717a">crativo.xyz</text>
</svg>
