<svg viewBox="0 0 1200 630" xmlns="http://www.w3.org/2000/svg">
  <defs>
    <linearGradient id="bg" x1="0%" y1="0%" x2="100%" y2="100%">
      <stop offset="0%" style="stop-color:#0a0a0a"/>
      <stop offset="100%" style="stop-color:#1a1a1a"/>
    </linearGradient>
    <linearGradient id="accent" x1="0%" y1="0%" x2="100%" y2="0%">
      <stop offset="0%" style="stop-color:#06b6d4"/>
      <stop offset="100%" style="stop-color:#8b5cf6"/>
    </linearGradient>
  </defs>
  <rect width="1200" height="630" fill="url(#bg)"/>
  <circle cx="200" cy="500" r="300" fill="#06b6d4" opacity="0.03"/>
  <circle cx="1050" cy="120" r="250" fill="#8b5cf6" opacity="0.03"/>

  <!-- RAG pipeline visual -->
  <g transform="translate(800, 140)">
    <rect x="0" y="40" width="60" height="70" rx="4" fill="#1f1f1f" stroke="#06b6d4" stroke-width="1.5"/>
    <rect x="8" y="55" width="30" height="3" rx="1" fill="#06b6d4" opacity="0.4"/>
    <rect x="8" y="62" width="44" height="3" rx="1" fill="#06b6d4" opacity="0.3"/>
    <rect x="8" y="69" width="35" height="3" rx="1" fill="#06b6d4" opacity="0.4"/>
    <text x="30" y="95" text-anchor="middle" font-family="monospace" font-size="8" fill="#71717a">docs</text>
    <line x1="70" y1="75" x2="100" y2="75" stroke="#404040" stroke-width="1.5"/>
    <polygon points="100,70 112,75 100,80" fill="#404040"/>
    <rect x="120" y="30" width="90" height="90" rx="6" fill="#1f1f1f" stroke="#8b5cf6" stroke-width="1.5"/>
    <circle cx="145" cy="55" r="4" fill="#8b5cf6" opacity="0.6"/>
    <circle cx="165" cy="65" r="4" fill="#8b5cf6" opacity="0.5"/>
    <circle cx="155" cy="80" r="4" fill="#8b5cf6" opacity="0.7"/>
    <circle cx="180" cy="55" r="4" fill="#8b5cf6" opacity="0.4"/>
    <circle cx="175" cy="90" r="4" fill="#8b5cf6" opacity="0.5"/>
    <text x="165" y="135" text-anchor="middle" font-family="monospace" font-size="8" fill="#71717a">vectors</text>
    <line x1="220" y1="75" x2="250" y2="75" stroke="#404040" stroke-width="1.5"/>
    <polygon points="250,70 262,75 250,80" fill="#404040"/>
    <circle cx="310" cy="75" r="40" fill="#1f1f1f" stroke="#10b981" stroke-width="1.5"/>
    <text x="310" y="80" text-anchor="middle" font-family="monospace" font-size="11" fill="#10b981">LLM</text>
    <text x="310" y="130" text-anchor="middle" font-family="monospace" font-size="8" fill="#71717a">generate</text>
  </g>

  <g transform="translate(860, 300)">
    <rect x="0" y="0" width="200" height="30" rx="5" fill="#f97316" opacity="0.15" stroke="#f97316" stroke-width="1"/>
    <text x="100" y="21" text-anchor="middle" font-family="monospace" font-size="11" fill="#f97316">you probably shouldn't</text>
  </g>

  <rect x="80" y="280" width="120" height="4" rx="2" fill="url(#accent)" opacity="0.8"/>
  <text x="80" y="340" font-family="system-ui, sans-serif" font-size="44" font-weight="700" fill="#ffffff">I Built a RAG System</text>
  <text x="80" y="400" font-family="system-ui, sans-serif" font-size="26" fill="#a1a1aa">So You Don't Have To</text>
  <text x="80" y="450" font-family="system-ui, sans-serif" font-size="20" fill="#71717a">crativo.xyz</text>
</svg>
