<svg width="800" height="400" viewBox="0 0 800 400" fill="none" xmlns="http://www.w3.org/2000/svg">
  <defs>
    <linearGradient id="bg5" x1="0%" y1="0%" x2="100%" y2="100%">
      <stop offset="0%" style="stop-color:#18181b"/>
      <stop offset="100%" style="stop-color:#09090b"/>
    </linearGradient>
    <linearGradient id="video" x1="0%" y1="0%" x2="100%" y2="100%">
      <stop offset="0%" style="stop-color:#8b5cf6"/>
      <stop offset="100%" style="stop-color:#6366f1"/>
    </linearGradient>
  </defs>
  <rect width="800" height="400" fill="url(#bg5)"/>
  
  <!-- Video grid container -->
  <rect x="100" y="50" width="600" height="300" rx="16" fill="#1f1f23" stroke="#2d2d35" stroke-width="2"/>
  
  <!-- 3x3 video grid -->
  <g transform="translate(115, 65)">
    <!-- Row 1 -->
    <rect x="0" y="0" width="180" height="85" rx="8" fill="url(#video)" opacity="0.8"/>
    <rect x="190" y="0" width="180" height="85" rx="8" fill="url(#video)" opacity="0.6"/>
    <rect x="380" y="0" width="180" height="85" rx="8" fill="url(#video)" opacity="0.7"/>
    
    <!-- Row 2 -->
    <rect x="0" y="95" width="180" height="85" rx="8" fill="url(#video)" opacity="0.5"/>
    <rect x="190" y="95" width="180" height="85" rx="8" fill="#22c55e" opacity="0.8"/>
    <rect x="380" y="95" width="180" height="85" rx="8" fill="url(#video)" opacity="0.6"/>
    
    <!-- Row 3 -->
    <rect x="0" y="190" width="180" height="85" rx="8" fill="url(#video)" opacity="0.7"/>
    <rect x="190" y="190" width="180" height="85" rx="8" fill="url(#video)" opacity="0.5"/>
    <rect x="380" y="190" width="180" height="85" rx="8" fill="url(#video)" opacity="0.8"/>
    
    <!-- User avatars in cells -->
    <circle cx="90" cy="42" r="20" fill="#27272a"/>
    <text x="90" y="48" text-anchor="middle" fill="#a1a1aa" font-family="system-ui" font-size="14">JV</text>
    
    <circle cx="280" cy="137" r="24" fill="#166534" stroke="#22c55e" stroke-width="3"/>
    <text x="280" y="143" text-anchor="middle" fill="#fff" font-family="system-ui" font-size="14" font-weight="bold">ME</text>
    
    <circle cx="470" cy="42" r="20" fill="#27272a"/>
    <text x="470" y="48" text-anchor="middle" fill="#a1a1aa" font-family="system-ui" font-size="14">AB</text>
  </g>
  
  <!-- Matrix overlay hint -->
  <g opacity="0.3" stroke="#22c55e" stroke-width="1" stroke-dasharray="4,4">
    <line x1="295" y1="50" x2="295" y2="350"/>
    <line x1="490" y1="50" x2="490" y2="350"/>
    <line x1="100" y1="145" x2="700" y2="145"/>
    <line x1="100" y1="240" x2="700" y2="240"/>
  </g>
  
  <!-- Formula hint -->
  <g transform="translate(720, 180)" opacity="0.4">
    <text fill="#a1a1aa" font-family="monospace" font-size="12">
      <tspan x="0" y="0">rows × cols</tspan>
      <tspan x="0" y="18">≥ n</tspan>
    </text>
  </g>
</svg>