<svg xmlns="http://www.w3.org/2000/svg" viewBox="0 0 1200 630" width="1200" height="630">
  <rect width="1200" height="630" fill="#0a0a0a"/>
  <!-- Abstract shapes -->
  <g stroke="#333" stroke-width="1" opacity="0.3">
    <line x1="0" y1="100" x2="1200" y2="100"/>
    <line x1="0" y1="200" x2="1200" y2="200"/>
    <line x1="0" y1="300" x2="1200" y2="300"/>
    <line x1="0" y1="400" x2="1200" y2="400"/>
    <line x1="0" y1="500" x2="1200" y2="500"/>
    <line x1="100" y1="0" x2="100" y2="630"/>
    <line x1="200" y1="0" x2="200" y2="630"/>
    <line x1="300" y1="0" x2="300" y2="630"/>
    <line x1="400" y1="0" x2="400" y2="630"/>
    <line x1="500" y1="0" x2="500" y2="630"/>
    <line x1="600" y1="0" x2="600" y2="630"/>
    <line x1="700" y1="0" x2="700" y2="630"/>
    <line x1="800" y1="0" x2="800" y2="630"/>
    <line x1="900" y1="0" x2="900" y2="630"/>
    <line x1="1000" y1="0" x2="1000" y2="630"/>
    <line x1="1100" y1="0" x2="1100" y2="630"/>
  </g>
  <rect x="700" y="150" width="400" height="350" fill="none" stroke="#f59e0b" stroke-width="8" stroke-dasharray="20 20"/>
  <rect x="750" y="200" width="300" height="250" fill="#f59e0b" opacity="0.2"/>
  <text x="900" y="340" font-family="system-ui" font-size="40" fill="#f59e0b" text-anchor="middle" font-weight="bold">* { box-sizing }</text>
  <!-- Text -->
  <text x="100" y="280" font-family="system-ui, -apple-system, sans-serif" font-size="80" font-weight="900" fill="#ffffff" letter-spacing="-2">Modern CSS</text>
  <text x="100" y="380" font-family="system-ui, -apple-system, sans-serif" font-size="80" font-weight="900" fill="#ffffff" letter-spacing="-2">Reset</text>
  <text x="100" y="450" font-family="system-ui, -apple-system, sans-serif" font-size="32" font-weight="500" fill="#888888">What I Actually Use in 2026</text>
</svg>
