<svg xmlns="http://www.w3.org/2000/svg" viewBox="0 0 800 400">
  <defs>
    <linearGradient id="bgGrad" x1="0%" y1="0%" x2="100%" y2="100%">
      <stop offset="0%" style="stop-color:#0a0a0a"/>
      <stop offset="100%" style="stop-color:#171717"/>
    </linearGradient>
    <linearGradient id="npmRed" x1="0%" y1="0%" x2="100%" y2="100%">
      <stop offset="0%" style="stop-color:#cb3837"/>
      <stop offset="100%" style="stop-color:#a62b2a"/>
    </linearGradient>
    <linearGradient id="boxGrad" x1="0%" y1="0%" x2="100%" y2="100%">
      <stop offset="0%" style="stop-color:#f97316"/>
      <stop offset="100%" style="stop-color:#ea580c"/>
    </linearGradient>
  </defs>
  
  <rect width="800" height="400" fill="url(#bgGrad)"/>
  
  <!-- npm logo stylized -->
  <g transform="translate(350, 80)">
    <rect x="0" y="0" width="100" height="40" rx="4" fill="url(#npmRed)"/>
    <text x="50" y="28" font-family="system-ui, sans-serif" font-size="20" fill="#fff" text-anchor="middle" font-weight="bold">npm</text>
  </g>
  
  <!-- Package boxes floating -->
  <g transform="translate(120, 180)">
    <!-- Box 1: too-bored -->
    <g transform="rotate(-5)">
      <rect x="0" y="0" width="140" height="90" rx="8" fill="#27272a" stroke="#f97316" stroke-width="2"/>
      <rect x="0" y="0" width="140" height="24" rx="8" fill="url(#boxGrad)"/>
      <rect x="0" y="16" width="140" height="8" fill="url(#boxGrad)"/>
      <text x="70" y="16" font-family="monospace" font-size="11" fill="#fff" text-anchor="middle">📦</text>
      <text x="70" y="55" font-family="monospace" font-size="14" fill="#e5e5e5" text-anchor="middle">too-bored</text>
      <text x="70" y="75" font-family="monospace" font-size="10" fill="#888" text-anchor="middle">v2.1.0</text>
    </g>
  </g>
  
  <g transform="translate(320, 200)">
    <!-- Box 2: ace -->
    <g transform="rotate(3)">
      <rect x="0" y="0" width="140" height="90" rx="8" fill="#27272a" stroke="#22c55e" stroke-width="2"/>
      <rect x="0" y="0" width="140" height="24" rx="8" fill="#22c55e"/>
      <rect x="0" y="16" width="140" height="8" fill="#22c55e"/>
      <text x="70" y="16" font-family="monospace" font-size="11" fill="#fff" text-anchor="middle">📦</text>
      <text x="70" y="55" font-family="monospace" font-size="14" fill="#e5e5e5" text-anchor="middle">ace-cli</text>
      <text x="70" y="75" font-family="monospace" font-size="10" fill="#888" text-anchor="middle">v1.4.2</text>
    </g>
  </g>
  
  <g transform="translate(520, 170)">
    <!-- Box 3: projax -->
    <g transform="rotate(-2)">
      <rect x="0" y="0" width="140" height="90" rx="8" fill="#27272a" stroke="#3b82f6" stroke-width="2"/>
      <rect x="0" y="0" width="140" height="24" rx="8" fill="#3b82f6"/>
      <rect x="0" y="16" width="140" height="8" fill="#3b82f6"/>
      <text x="70" y="16" font-family="monospace" font-size="11" fill="#fff" text-anchor="middle">📦</text>
      <text x="70" y="55" font-family="monospace" font-size="14" fill="#e5e5e5" text-anchor="middle">projax</text>
      <text x="70" y="75" font-family="monospace" font-size="10" fill="#888" text-anchor="middle">v3.0.0</text>
    </g>
  </g>
  
  <!-- Download stats -->
  <g transform="translate(180, 320)">
    <text x="0" y="0" font-family="monospace" font-size="12" fill="#888">↓ 8,700+</text>
  </g>
  <g transform="translate(380, 330)">
    <text x="0" y="0" font-family="monospace" font-size="12" fill="#888">↓ 2,100+</text>
  </g>
  <g transform="translate(580, 310)">
    <text x="0" y="0" font-family="monospace" font-size="12" fill="#888">↓ 1,750/mo</text>
  </g>
  
  <!-- Terminal snippet -->
  <g transform="translate(80, 50)">
    <rect x="0" y="0" width="200" height="50" rx="6" fill="#1a1a1a" stroke="#333"/>
    <text x="12" y="20" font-family="monospace" font-size="11" fill="#888">$</text>
    <text x="28" y="20" font-family="monospace" font-size="11" fill="#e5e5e5">npm publish</text>
    <text x="12" y="38" font-family="monospace" font-size="11" fill="#22c55e">+ package@1.0.0</text>
  </g>
  
  <!-- Connection lines -->
  <line x1="400" y1="120" x2="190" y2="180" stroke="#f97316" stroke-width="1" opacity="0.3" stroke-dasharray="4"/>
  <line x1="400" y1="120" x2="390" y2="200" stroke="#22c55e" stroke-width="1" opacity="0.3" stroke-dasharray="4"/>
  <line x1="400" y1="120" x2="590" y2="170" stroke="#3b82f6" stroke-width="1" opacity="0.3" stroke-dasharray="4"/>
</svg>