<svg width="800" height="400" viewBox="0 0 800 400" fill="none" xmlns="http://www.w3.org/2000/svg">
  <defs>
    <linearGradient id="bg6" x1="0%" y1="0%" x2="100%" y2="100%">
      <stop offset="0%" style="stop-color:#0f172a"/>
      <stop offset="100%" style="stop-color:#1e1b4b"/>
    </linearGradient>
    <linearGradient id="folder" x1="0%" y1="0%" x2="0%" y2="100%">
      <stop offset="0%" style="stop-color:#3b82f6"/>
      <stop offset="100%" style="stop-color:#2563eb"/>
    </linearGradient>
  </defs>
  <rect width="800" height="400" fill="url(#bg6)"/>
  
  <!-- Scattered project folders -->
  <g opacity="0.6">
    <!-- Folder 1 - dirty -->
    <g transform="translate(120, 80)">
      <path d="M0 12 L0 60 Q0 65, 5 65 L75 65 Q80 65, 80 60 L80 12 L45 12 L40 5 L5 5 Q0 5, 0 12Z" fill="url(#folder)"/>
      <circle cx="70" cy="15" r="6" fill="#fbbf24"/>
      <text x="40" y="42" text-anchor="middle" fill="#fff" font-family="monospace" font-size="9">thing2</text>
    </g>
    
    <!-- Folder 2 - clean -->
    <g transform="translate(250, 120)">
      <path d="M0 12 L0 60 Q0 65, 5 65 L75 65 Q80 65, 80 60 L80 12 L45 12 L40 5 L5 5 Q0 5, 0 12Z" fill="url(#folder)"/>
      <circle cx="70" cy="15" r="6" fill="#22c55e"/>
      <text x="40" y="42" text-anchor="middle" fill="#fff" font-family="monospace" font-size="8">floatnote</text>
    </g>
    
    <!-- Folder 3 - dirty -->
    <g transform="translate(380, 80)">
      <path d="M0 12 L0 60 Q0 65, 5 65 L75 65 Q80 65, 80 60 L80 12 L45 12 L40 5 L5 5 Q0 5, 0 12Z" fill="url(#folder)"/>
      <circle cx="70" cy="15" r="6" fill="#fbbf24"/>
      <text x="40" y="42" text-anchor="middle" fill="#fff" font-family="monospace" font-size="7">spicy-meatball</text>
    </g>
    
    <!-- Folder 4 -->
    <g transform="translate(520, 130)">
      <path d="M0 12 L0 60 Q0 65, 5 65 L75 65 Q80 65, 80 60 L80 12 L45 12 L40 5 L5 5 Q0 5, 0 12Z" fill="url(#folder)"/>
      <circle cx="70" cy="15" r="6" fill="#22c55e"/>
      <text x="40" y="42" text-anchor="middle" fill="#fff" font-family="monospace" font-size="9">qortr</text>
    </g>
    
    <!-- Folder 5 -->
    <g transform="translate(650, 90)">
      <path d="M0 12 L0 60 Q0 65, 5 65 L75 65 Q80 65, 80 60 L80 12 L45 12 L40 5 L5 5 Q0 5, 0 12Z" fill="url(#folder)"/>
      <circle cx="70" cy="15" r="6" fill="#ef4444"/>
      <text x="40" y="42" text-anchor="middle" fill="#fff" font-family="monospace" font-size="8">wtf-del</text>
    </g>
  </g>
  
  <!-- Dashboard panel -->
  <g transform="translate(200, 200)">
    <rect width="400" height="160" rx="12" fill="#1e293b" stroke="#334155" stroke-width="2"/>
    
    <!-- Header -->
    <rect x="0" y="0" width="400" height="36" rx="12" fill="#0f172a"/>
    <rect x="0" y="24" width="400" height="12" fill="#0f172a"/>
    <text x="20" y="24" fill="#e2e8f0" font-family="system-ui" font-size="14" font-weight="bold">projax</text>
    <text x="75" y="24" fill="#64748b" font-family="system-ui" font-size="12">— 213 projects</text>
    
    <!-- Project list -->
    <g transform="translate(15, 50)" font-family="monospace" font-size="12">
      <circle cx="8" cy="6" r="4" fill="#22c55e"/>
      <text x="20" y="10" fill="#e2e8f0">floatnote</text>
      <text x="200" y="10" fill="#64748b">[5173]</text>
      
      <circle cx="8" cy="30" r="4" fill="#fbbf24"/>
      <text x="20" y="34" fill="#e2e8f0">qortr</text>
      <text x="200" y="34" fill="#64748b">[3000]</text>
      
      <circle cx="8" cy="54" r="4" fill="#fbbf24"/>
      <text x="20" y="58" fill="#e2e8f0">spicy-meatball</text>
      <text x="200" y="58" fill="#64748b">dirty</text>
      
      <circle cx="8" cy="78" r="4" fill="#22c55e"/>
      <text x="20" y="82" fill="#e2e8f0">josetunes</text>
    </g>
  </g>
  
  <!-- Connection lines -->
  <g stroke="#3b82f6" stroke-width="1" opacity="0.3">
    <path d="M290 195 Q290 180, 160 140" fill="none"/>
    <path d="M350 195 Q350 160, 420 140" fill="none"/>
    <path d="M500 195 Q520 180, 560 155" fill="none"/>
  </g>
</svg>