<svg xmlns="http://www.w3.org/2000/svg" viewBox="0 0 1200 630">
  <defs>
    <linearGradient id="bg" x1="0%" y1="0%" x2="100%" y2="100%">
      <stop offset="0%" style="stop-color:#0a0a0a"/>
      <stop offset="100%" style="stop-color:#1a1a1a"/>
    </linearGradient>
    <linearGradient id="accent" x1="0%" y1="0%" x2="100%" y2="0%">
      <stop offset="0%" style="stop-color:#10b981"/>
      <stop offset="100%" style="stop-color:#06b6d4"/>
    </linearGradient>
  </defs>
  <rect width="1200" height="630" fill="url(#bg)"/>
  <circle cx="1100" cy="200" r="280" fill="#10b981" opacity="0.04"/>
  <circle cx="50" cy="500" r="250" fill="#06b6d4" opacity="0.03"/>
  <rect x="80" y="280" width="120" height="4" rx="2" fill="url(#accent)" opacity="0.8"/>
  <text x="80" y="340" font-family="system-ui, sans-serif" font-size="44" font-weight="700" fill="#ffffff">Senior Engineer Survival</text>
  <text x="80" y="400" font-family="system-ui, sans-serif" font-size="28" fill="#a1a1aa">Navigating Startup Chaos</text>
  <text x="80" y="450" font-family="system-ui, sans-serif" font-size="20" fill="#71717a">crativo.xyz</text>
  <!-- Rocket/Growth hint -->
  <g transform="translate(920, 300)">
    <polygon points="60,0 80,40 60,35 40,40" fill="#10b981" opacity="0.8"/>
    <rect x="45" y="40" width="30" height="50" rx="4" fill="#10b981" opacity="0.6"/>
    <polygon points="35,90 45,90 45,110 35,100" fill="#f97316" opacity="0.8"/>
    <polygon points="75,90 85,100 75,110 75,90" fill="#f97316" opacity="0.8"/>
    <polygon points="55,90 65,90 60,115" fill="#f97316" opacity="0.9"/>
  </g>
  <!-- Years badge -->
  <g transform="translate(1000, 420)">
    <rect x="0" y="0" width="80" height="35" rx="6" fill="#10b981" opacity="0.2" stroke="#10b981" stroke-width="1"/>
    <text x="40" y="24" text-anchor="middle" font-family="system-ui" font-size="14" font-weight="600" fill="#10b981">21 YRS</text>
  </g>
</svg>
