<svg width="800" height="400" viewBox="0 0 800 400" fill="none" xmlns="http://www.w3.org/2000/svg">
  <defs>
    <linearGradient id="bg" x1="0%" y1="0%" x2="100%" y2="100%">
      <stop offset="0%" style="stop-color:#0a0a0a"/>
      <stop offset="100%" style="stop-color:#1a1a2e"/>
    </linearGradient>
  </defs>
  <rect width="800" height="400" fill="url(#bg)"/>
  
  <!-- Copy/paste illustration -->
  <rect x="100" y="120" width="180" height="160" rx="10" fill="none" stroke="#666" stroke-width="2" stroke-dasharray="6 3"/>
  <text x="190" y="200" fill="#666" font-family="monospace" font-size="14" text-anchor="middle">components/</text>
  <text x="190" y="220" fill="#666" font-family="monospace" font-size="11" text-anchor="middle">ui/button.tsx</text>
  
  <!-- Arrow -->
  <path d="M300 200 L380 200" stroke="#10b981" stroke-width="3"/>
  <polygon points="380,195 395,200 380,205" fill="#10b981"/>
  <text x="340" y="180" fill="#10b981" font-family="monospace" font-size="10">copy</text>
  
  <!-- Your project -->
  <rect x="420" y="120" width="280" height="160" rx="10" fill="#10b981" opacity="0.1" stroke="#10b981" stroke-width="2"/>
  <text x="560" y="160" fill="#10b981" font-family="monospace" font-size="14" text-anchor="middle">your-project/</text>
  
  <!-- Component files -->
  <rect x="440" y="180" width="120" height="30" rx="4" fill="#10b981" opacity="0.2"/>
  <text x="500" y="200" fill="#10b981" font-family="monospace" font-size="10" text-anchor="middle">button.tsx ✓</text>
  
  <rect x="440" y="220" width="120" height="30" rx="4" fill="#60a5fa" opacity="0.2"/>
  <text x="500" y="240" fill="#60a5fa" font-family="monospace" font-size="10" text-anchor="middle">card.tsx ✓</text>
  
  <rect x="580" y="180" width="100" height="30" rx="4" fill="#fbbf24" opacity="0.2"/>
  <text x="630" y="200" fill="#fbbf24" font-family="monospace" font-size="10" text-anchor="middle">dialog.tsx ✓</text>
  
  <!-- No node_modules -->
  <text x="400" y="340" fill="#666" font-family="monospace" font-size="11" text-anchor="middle">no npm install • you own the code</text>
  
  <text x="400" y="370" fill="#10b981" font-family="monospace" font-size="14" text-anchor="middle">shadcn/ui</text>
</svg>
