<svg viewBox="0 0 1200 630" xmlns="http://www.w3.org/2000/svg">
  <defs>
    <linearGradient id="bg" x1="0%" y1="0%" x2="100%" y2="100%">
      <stop offset="0%" style="stop-color:#0a0a0a"/>
      <stop offset="100%" style="stop-color:#1a1a1a"/>
    </linearGradient>
    <linearGradient id="accent" x1="0%" y1="0%" x2="100%" y2="0%">
      <stop offset="0%" style="stop-color:#8b5cf6"/>
      <stop offset="100%" style="stop-color:#06b6d4"/>
    </linearGradient>
  </defs>
  <rect width="1200" height="630" fill="url(#bg)"/>
  <circle cx="200" cy="500" r="300" fill="#8b5cf6" opacity="0.03"/>
  <circle cx="1050" cy="120" r="250" fill="#06b6d4" opacity="0.03"/>

  <!-- Sound wave bars -->
  <g transform="translate(840, 140)">
    <rect x="0" y="60" width="8" height="40" rx="2" fill="#8b5cf6" opacity="0.5"/>
    <rect x="15" y="40" width="8" height="80" rx="2" fill="#8b5cf6" opacity="0.6"/>
    <rect x="30" y="20" width="8" height="120" rx="2" fill="#8b5cf6" opacity="0.7"/>
    <rect x="45" y="30" width="8" height="100" rx="2" fill="#06b6d4" opacity="0.7"/>
    <rect x="60" y="10" width="8" height="140" rx="2" fill="#06b6d4" opacity="0.8"/>
    <rect x="75" y="25" width="8" height="110" rx="2" fill="#06b6d4" opacity="0.7"/>
    <rect x="90" y="35" width="8" height="90" rx="2" fill="#8b5cf6" opacity="0.6"/>
    <rect x="105" y="50" width="8" height="60" rx="2" fill="#8b5cf6" opacity="0.5"/>
    <rect x="120" y="55" width="8" height="50" rx="2" fill="#06b6d4" opacity="0.5"/>
    <rect x="135" y="45" width="8" height="70" rx="2" fill="#06b6d4" opacity="0.6"/>
    <rect x="150" y="30" width="8" height="100" rx="2" fill="#8b5cf6" opacity="0.7"/>
    <rect x="165" y="20" width="8" height="120" rx="2" fill="#8b5cf6" opacity="0.6"/>
    <rect x="180" y="45" width="8" height="70" rx="2" fill="#06b6d4" opacity="0.5"/>
    <!-- Microphone icon -->
    <g transform="translate(240, 30)">
      <rect x="0" y="0" width="30" height="50" rx="15" fill="none" stroke="#8b5cf6" stroke-width="2"/>
      <path d="M-8 40 Q-8 70 15 70 Q38 70 38 40" fill="none" stroke="#8b5cf6" stroke-width="2"/>
      <line x1="15" y1="70" x2="15" y2="90" stroke="#8b5cf6" stroke-width="2"/>
      <line x1="0" y1="90" x2="30" y2="90" stroke="#8b5cf6" stroke-width="2"/>
    </g>
  </g>

  <!-- Tool badges -->
  <g transform="translate(860, 310)">
    <rect x="0" y="0" width="80" height="28" rx="5" fill="#ef4444" opacity="0.15" stroke="#ef4444" stroke-width="1"/>
    <text x="40" y="19" text-anchor="middle" font-family="monospace" font-size="10" fill="#ef4444">Siri</text>
  </g>
  <g transform="translate(955, 310)">
    <rect x="0" y="0" width="90" height="28" rx="5" fill="#10b981" opacity="0.15" stroke="#10b981" stroke-width="1"/>
    <text x="45" y="19" text-anchor="middle" font-family="monospace" font-size="10" fill="#10b981">Whisper</text>
  </g>
  <g transform="translate(1060, 310)">
    <rect x="0" y="0" width="90" height="28" rx="5" fill="#06b6d4" opacity="0.15" stroke="#06b6d4" stroke-width="1"/>
    <text x="45" y="19" text-anchor="middle" font-family="monospace" font-size="9" fill="#06b6d4">ElevenLabs</text>
  </g>

  <rect x="80" y="280" width="120" height="4" rx="2" fill="url(#accent)" opacity="0.8"/>
  <text x="80" y="340" font-family="system-ui, sans-serif" font-size="42" font-weight="700" fill="#ffffff">Voice AI in 2025</text>
  <text x="80" y="400" font-family="system-ui, sans-serif" font-size="26" fill="#a1a1aa">Why Siri Still Sucks</text>
  <text x="80" y="450" font-family="system-ui, sans-serif" font-size="20" fill="#71717a">crativo.xyz</text>
</svg>
