<svg width="800" height="400" viewBox="0 0 800 400" fill="none" xmlns="http://www.w3.org/2000/svg">
  <defs>
    <linearGradient id="bg" x1="0%" y1="0%" x2="100%" y2="100%">
      <stop offset="0%" style="stop-color:#0a0a0a"/>
      <stop offset="100%" style="stop-color:#1a1a2e"/>
    </linearGradient>
  </defs>
  <rect width="800" height="400" fill="url(#bg)"/>
  
  <!-- Web Components logo shape -->
  <polygon points="400,80 480,160 480,260 400,340 320,260 320,160" fill="none" stroke="#f97316" stroke-width="3"/>
  <polygon points="400,120 440,160 440,240 400,280 360,240 360,160" fill="#f97316" opacity="0.2"/>
  
  <!-- Component boxes -->
  <rect x="100" y="140" width="100" height="70" rx="8" fill="none" stroke="#60a5fa" stroke-width="2" opacity="0.7"/>
  <text x="150" y="180" fill="#60a5fa" font-family="monospace" font-size="11" text-anchor="middle">&lt;my-btn&gt;</text>
  
  <rect x="100" y="230" width="100" height="70" rx="8" fill="none" stroke="#10b981" stroke-width="2" opacity="0.7"/>
  <text x="150" y="270" fill="#10b981" font-family="monospace" font-size="11" text-anchor="middle">&lt;my-card&gt;</text>
  
  <rect x="600" y="140" width="100" height="70" rx="8" fill="none" stroke="#fbbf24" stroke-width="2" opacity="0.7"/>
  <text x="650" y="180" fill="#fbbf24" font-family="monospace" font-size="11" text-anchor="middle">&lt;my-nav&gt;</text>
  
  <rect x="600" y="230" width="100" height="70" rx="8" fill="none" stroke="#ef4444" stroke-width="2" opacity="0.7"/>
  <text x="650" y="270" fill="#ef4444" font-family="monospace" font-size="11" text-anchor="middle">&lt;my-modal&gt;</text>
  
  <!-- Connection lines -->
  <line x1="200" y1="175" x2="320" y2="200" stroke="#666" stroke-width="1" opacity="0.3"/>
  <line x1="200" y1="265" x2="320" y2="220" stroke="#666" stroke-width="1" opacity="0.3"/>
  <line x1="600" y1="175" x2="480" y2="200" stroke="#666" stroke-width="1" opacity="0.3"/>
  <line x1="600" y1="265" x2="480" y2="220" stroke="#666" stroke-width="1" opacity="0.3"/>
  
  <text x="400" y="375" fill="#666" font-family="monospace" font-size="12" text-anchor="middle">Web Components 2025</text>
</svg>
